<?xml version="1.0" encoding="utf-8"?>
<!-- Generator: Adobe Illustrator 22.1.0, SVG Export Plug-In . SVG Version: 6.00 Build 0)  -->
<svg version="1.1" id="AerotheoryIconGroup" xmlns="http://www.w3.org/2000/svg" xmlns:xlink="http://www.w3.org/1999/xlink"
	 x="0px" y="0px" viewBox="0 0 404 404" style="enable-background:new 0 0 404 404;" xml:space="preserve">
<style type="text/css">
	.st0{fill:#FFFF50;}
	.st1{fill:url(#bottomFeather_1_);}
	.st2{fill:url(#topFeather_2_);}
	.st3{fill:url(#leftFeather_1_);}
	.st4{fill:url(#rightFeather_1_);}
	.st5{fill:url(#bottom45Feather_1_);}
	.st6{fill:url(#top45Feather_1_);}
	.st7{fill:#FFFFFF;}
</style>
<g id="SymbleGroup">
	<g id="CirclesGroup">
		<path id="topOuterYellow" class="st0" d="M369.4,202.8H405c0-111.5-90.5-202-202-202v35.6C294.9,36.4,369.4,110.9,369.4,202.8z"/>
		<path id="bottomOuterYellow" class="st0" d="M36.6,202.8H1c0,111.5,90.5,202,202,202v-35.6C111.1,369.2,36.6,294.7,36.6,202.8z"/>
		<path id="topOuterBlack" d="M203,36.4v35.6c72.2,0,130.7,58.5,130.7,130.7h35.6C369.4,110.9,294.9,36.4,203,36.4z"/>
		<path id="bottomOuterBlack" d="M72.3,202.8H36.6c0,91.9,74.5,166.4,166.4,166.4v-35.6C130.8,333.5,72.3,275,72.3,202.8z"/>
		<path id="bottomMiddleYellow" class="st0" d="M107.9,202.8H72.3c0,72.2,58.5,130.7,130.7,130.7v-35.6
			C150.5,297.9,107.9,255.3,107.9,202.8z"/>
		<path id="topMiddleYellow" class="st0" d="M203,72.1v35.6c52.5,0,95.1,42.5,95.1,95.1h35.6C333.7,130.6,275.2,72.1,203,72.1z"/>
		<path id="topMiddleBlack" d="M203,107.7v35.6c32.8,0,59.4,26.6,59.4,59.4h35.6C298.1,150.3,255.5,107.7,203,107.7z"/>
		<path id="bottomMiddleBlack" d="M143.6,202.8h-35.6c0,52.5,42.5,95.1,95.1,95.1v-35.6C170.2,262.2,143.6,235.6,143.6,202.8z"/>
		<g id="FeatherGroup">
			
				<linearGradient id="bottomFeather_1_" gradientUnits="userSpaceOnUse" x1="163.3922" y1="-1289.8" x2="203" y2="-1289.8" gradientTransform="matrix(1 0 0 -1 0 -986)">
				<stop  offset="0" style="stop-color:#FFFFFF;stop-opacity:0"/>
				<stop  offset="1" style="stop-color:#FFFFFF;stop-opacity:0.8"/>
			</linearGradient>
			<path id="bottomFeather" class="st1" d="M163.4,202.8v101c0,32.2,0,64.6,0,96.8c13.2,1.4,26.4,2.8,39.6,4.2v-202L163.4,202.8
				L163.4,202.8z"/>
			
				<linearGradient id="topFeather_2_" gradientUnits="userSpaceOnUse" x1="242.6078" y1="-1087.8" x2="203" y2="-1087.8" gradientTransform="matrix(1 0 0 -1 0 -986)">
				<stop  offset="0" style="stop-color:#FFFFFF;stop-opacity:0"/>
				<stop  offset="1" style="stop-color:#FFFFFF;stop-opacity:0.8"/>
			</linearGradient>
			<path id="topFeather_1_" class="st2" d="M203,0.8v101v101h39.6c0-65.9,0-131.8,0-197.7C229.4,3.7,216.2,2.2,203,0.8z"/>
			
				<linearGradient id="leftFeather_1_" gradientUnits="userSpaceOnUse" x1="-2673.908" y1="533.9" x2="-2634.3" y2="533.9" gradientTransform="matrix(0 -1 -1 0 635.9 -2431.5)">
				<stop  offset="0" style="stop-color:#FFFFFF;stop-opacity:0"/>
				<stop  offset="1" style="stop-color:#FFFFFF;stop-opacity:0.8"/>
			</linearGradient>
			<path id="leftFeather" class="st3" d="M4.9,242.4c32.4,0,64.7,0,97.1,0h101v-39.6H1C2.3,216,3.6,229.2,4.9,242.4z"/>
			
				<linearGradient id="rightFeather_1_" gradientUnits="userSpaceOnUse" x1="-2594.6921" y1="331.9" x2="-2634.3" y2="331.9" gradientTransform="matrix(0 -1 -1 0 635.9 -2431.5)">
				<stop  offset="0" style="stop-color:#FFFFFF;stop-opacity:0"/>
				<stop  offset="1" style="stop-color:#FFFFFF;stop-opacity:0.8"/>
			</linearGradient>
			<path id="rightFeather" class="st4" d="M203,202.8h101h101c-1.4-13.2-2.9-26.4-4.4-39.6c-65.9,0-131.7,0-197.6,0V202.8z"/>
		</g>
		<path id="bottomInnerYellow" class="st0" d="M179.2,202.8h-35.6c0,32.8,26.6,59.4,59.4,59.4v-35.6
			C189.9,226.6,179.2,215.9,179.2,202.8z"/>
		<path id="topInnerYellow" class="st0" d="M203,143.4V179c13.1,0,23.8,10.6,23.8,23.8h35.6C262.4,170,235.8,143.4,203,143.4z"/>
		<path id="topInnerBlack" d="M203,179v23.8h23.8C226.8,189.7,216.1,179,203,179z"/>
		<path id="bottomInnerBlack" d="M203,226.6v-23.8h-23.8C179.2,215.9,189.9,226.6,203,226.6z"/>
	</g>
	
		<linearGradient id="bottom45Feather_1_" gradientUnits="userSpaceOnUse" x1="-2964.2422" y1="2832.9561" x2="-2964.2422" y2="2751.511" gradientTransform="matrix(0.3712 -0.3712 0.7071 0.7071 -742.4745 -2800.6604)">
		<stop  offset="0" style="stop-color:#FFFFFF;stop-opacity:0"/>
		<stop  offset="0.4622" style="stop-color:#FFFFFF;stop-opacity:0.8193"/>
		<stop  offset="0.5077" style="stop-color:#FFFFFF;stop-opacity:0.9"/>
		<stop  offset="0.5518" style="stop-color:#FFFFFF;stop-opacity:0.8193"/>
		<stop  offset="1" style="stop-color:#FFFFFF;stop-opacity:0"/>
	</linearGradient>
	<path id="bottom45Feather" class="st5" d="M51,297.1c31.4-31.4,62.8-62.9,94.3-94.3c9.3,0.1,18.6,0.1,28,0.1c10,0,19.9,0,29.7,0
		c-0.1,10.7-0.1,21.4-0.1,32.2c0,8.5,0,16.9,0.1,25.2c-31.4,31.5-63,63.1-94.4,94.5c-10.7,10.7-28,10.7-38.7,0L51,335.9
		C40.3,325.3,40.3,307.8,51,297.1z"/>
	
		<linearGradient id="top45Feather_1_" gradientUnits="userSpaceOnUse" x1="990.5483" y1="-773.6617" x2="990.5483" y2="-838.351" gradientTransform="matrix(-0.4671 0.4681 -0.8896 -0.8916 20.0741 -1050.7555)">
		<stop  offset="0" style="stop-color:#FFFFFF;stop-opacity:0"/>
		<stop  offset="0.4622" style="stop-color:#FFFFFF;stop-opacity:0.8193"/>
		<stop  offset="0.5077" style="stop-color:#FFFFFF;stop-opacity:0.9"/>
		<stop  offset="0.5518" style="stop-color:#FFFFFF;stop-opacity:0.8193"/>
		<stop  offset="1" style="stop-color:#FFFFFF;stop-opacity:0"/>
	</linearGradient>
	<path id="top45Feather" class="st6" d="M355,108.5c-31.4,31.4-62.8,62.9-94.3,94.3c-9.3-0.1-18.6-0.1-28-0.1c-10,0-19.9,0-29.7,0
		c0.1-10.7,0.1-21.4,0.1-32.2c0-8.5,0-16.9-0.1-25.2c31.4-31.5,63-63.1,94.4-94.5c10.7-10.7,28-10.7,38.7,0L355,69.7
		C365.7,80.3,365.7,97.8,355,108.5z"/>
	<path id="BottomQuarter" class="st7" d="M203,404.8c111.5,0,202-90.5,202-202H203V404.8z"/>
	<path id="topQuarter_2_" class="st7" d="M203,0.8C91.5,0.8,1,91.3,1,202.8h202V0.8z"/>
</g>
<g id="AT_x5F_Group">
	<path id="T" d="M285.1,384.2h-32.7L280.2,252h-46.6l5.5-26.5h125.1l-5.5,26.5h-45.9L285.1,384.2z"/>
	<path id="A" d="M141.8,146.3H78.9l-19.1,35.1H26.3L116,22.7h36.3L178,181.4h-31L141.8,146.3z M137.8,119.9l-9.2-63.9l-38.3,63.9
		H137.8z"/>
</g>
</svg>
